<?xml version="1.0" standalone="no"?>
<!DOCTYPE svg PUBLIC "-//W3C//DTD SVG 20010904//EN"
 "http://www.w3.org/TR/2001/REC-SVG-20010904/DTD/svg10.dtd">
<svg version="1.0" xmlns="http://www.w3.org/2000/svg"
 width="1052.000000pt" height="1052.000000pt" viewBox="0 0 1052.000000 1052.000000"
 preserveAspectRatio="xMidYMid meet">
<metadata>
Created by potrace 1.14, written by Peter Selinger 2001-2017
</metadata>
<g transform="translate(0.000000,1052.000000) scale(0.100000,-0.100000)"
fill="#000000" stroke="none">
<path d="M5106 9002 c-5 -4 -44 -11 -96 -17 -25 -3 -53 -8 -62 -11 -9 -3 -27
-7 -40 -10 -39 -9 -53 -12 -53 -14 0 -1 -7 -3 -16 -5 -35 -7 -196 -57 -226
-71 -17 -8 -36 -14 -42 -14 -6 0 -19 -4 -29 -9 -9 -5 -73 -30 -142 -57 -104
-40 -120 -49 -100 -55 14 -4 63 -17 110 -30 47 -12 90 -25 95 -28 6 -3 15 -6
20 -7 48 -7 312 -123 575 -252 63 -31 118 -56 123 -54 4 1 7 -2 7 -7 0 -5 10
-12 23 -16 30 -10 23 -7 97 -42 64 -29 229 -89 266 -96 11 -2 26 -7 34 -10 91
-35 416 -32 428 4 2 5 8 9 12 9 11 0 -11 -51 -127 -290 -49 -102 -100 -209
-113 -237 -13 -29 -28 -53 -33 -53 -6 0 -8 -3 -5 -6 3 -3 -8 -33 -26 -67 -27
-53 -35 -62 -61 -64 -72 -5 -133 -13 -170 -25 -22 -6 -45 -11 -51 -10 -21 4
-362 -140 -374 -158 -3 -4 -16 -11 -30 -15 -14 -4 -27 -11 -30 -14 -3 -4 -27
-20 -55 -36 -27 -15 -52 -31 -55 -34 -3 -4 -18 -15 -35 -25 -16 -11 -34 -25
-38 -33 -4 -7 -14 -13 -20 -13 -7 0 -54 -40 -103 -89 -90 -88 -185 -208 -236
-299 -41 -73 -82 -156 -80 -164 1 -5 -3 -8 -10 -8 -6 0 -8 -3 -5 -7 4 -3 1
-13 -6 -22 -8 -9 -24 -45 -37 -81 -13 -36 -27 -70 -32 -76 -5 -7 -11 -20 -13
-30 -2 -11 -22 -65 -44 -122 -34 -89 -88 -252 -95 -286 -2 -6 -8 -31 -15 -56
-7 -25 -15 -56 -17 -70 -3 -14 -7 -32 -10 -40 -3 -8 -7 -28 -10 -45 -5 -38
-12 -70 -14 -70 -1 0 -3 -11 -5 -25 -2 -14 -6 -40 -9 -58 -5 -32 -19 -141 -31
-235 -3 -26 -8 -96 -11 -155 -2 -59 -6 -122 -7 -140 -2 -18 0 -35 5 -38 5 -3
5 -10 1 -17 -9 -16 -10 -58 -1 -63 5 -3 4 -13 -2 -23 -5 -10 -7 -21 -4 -24 3
-3 7 -52 10 -108 2 -57 6 -120 9 -139 6 -43 14 -114 20 -160 4 -34 16 -110 30
-180 4 -19 8 -44 10 -55 1 -11 5 -27 8 -35 5 -13 19 -72 18 -77 0 -2 9 -32 19
-68 10 -36 16 -65 13 -65 -3 0 -1 -6 5 -13 6 -7 13 -24 16 -37 6 -31 71 -214
90 -255 8 -16 18 -42 21 -58 4 -15 11 -27 16 -27 5 0 9 -5 9 -11 0 -17 92
-198 139 -271 23 -36 41 -70 41 -76 0 -6 4 -12 8 -14 4 -1 23 -25 42 -53 34
-48 50 -69 80 -105 8 -9 26 -32 40 -50 45 -60 202 -210 234 -224 17 -8 48 -21
68 -30 80 -35 256 -98 343 -122 82 -22 126 -32 225 -51 19 -3 42 -8 50 -9 8
-2 53 -6 100 -11 179 -15 400 -3 535 29 28 7 54 11 59 10 4 -2 14 3 22 9 8 6
14 9 14 6 0 -7 128 36 161 54 79 42 273 214 354 314 22 27 50 59 61 72 12 13
34 42 50 65 16 24 32 45 35 48 19 17 136 219 187 323 79 160 93 194 132 307
17 52 36 104 41 115 9 20 78 281 84 320 2 11 9 47 15 80 6 33 13 71 15 85 1
14 6 48 10 75 7 53 10 71 21 175 3 36 7 180 7 320 0 265 -5 353 -28 490 -2 14
-7 48 -11 75 -9 74 -11 83 -29 165 -9 41 -18 84 -20 95 -33 154 -173 565 -196
573 -5 2 -9 9 -9 15 0 13 -60 139 -70 147 -3 3 -12 20 -19 38 -8 17 -17 32
-22 32 -5 0 -9 5 -9 11 0 9 -47 82 -76 119 -7 8 -33 42 -58 75 -68 91 -244
267 -335 335 -19 14 -43 33 -54 43 -11 9 -23 17 -27 17 -4 0 -18 9 -31 20 -13
11 -28 23 -34 28 -42 34 -241 133 -249 124 -3 -3 -6 -1 -6 5 0 6 -17 14 -37
18 -21 4 -49 9 -63 12 -14 3 -29 6 -35 7 -5 1 -23 7 -40 13 -62 23 -70 26 -80
28 -5 1 -12 3 -15 4 -3 2 -34 5 -70 7 -36 3 -66 7 -68 9 -2 2 18 48 44 102 26
54 47 101 46 106 -1 4 3 7 8 7 6 0 10 5 10 11 0 5 32 76 71 157 117 243 123
256 125 268 2 11 9 29 44 109 8 17 14 32 15 35 6 28 50 132 56 136 5 3 9 16 9
30 0 13 5 24 11 24 5 0 8 3 6 8 -3 4 4 25 14 47 18 37 18 41 3 52 -9 7 -20 10
-25 8 -4 -3 -9 1 -12 7 -7 23 -34 -9 -48 -57 -7 -25 -18 -45 -23 -45 -5 0 -7
-3 -3 -6 3 -4 -1 -20 -9 -36 -9 -17 -17 -37 -19 -46 -2 -10 -17 -46 -34 -82
-17 -36 -28 -52 -24 -36 24 116 -29 249 -146 366 -92 91 -104 100 -226 166
-170 92 -333 155 -441 170 -50 7 -193 11 -198 6z"/>
</g>
</svg>
